<svg width="417" height="244" viewBox="0 0 417 244" fill="none" xmlns="http://www.w3.org/2000/svg">
<g filter="url(#filter0_d_1_1680)">
<path d="M30.8966 146.448C30.8966 149.457 28.4573 151.897 25.4483 151.897C22.4393 151.897 20 149.457 20 146.448C20 143.439 22.4393 141 25.4483 141C28.4573 141 30.8966 143.439 30.8966 146.448Z" fill="#F2F2F2"/>
<path d="M64.9483 146.448C64.9483 149.457 62.509 151.897 59.5 151.897C56.491 151.897 54.0517 149.457 54.0517 146.448C54.0517 143.439 56.491 141 59.5 141C62.509 141 64.9483 143.439 64.9483 146.448Z" fill="#F2F2F2"/>
<path d="M99 146.448C99 149.457 96.5607 151.897 93.5517 151.897C90.5427 151.897 88.1034 149.457 88.1034 146.448C88.1034 143.439 90.5427 141 93.5517 141C96.5607 141 99 143.439 99 146.448Z" fill="#F2F2F2"/>
<path d="M167.103 146.448C167.103 149.457 164.664 151.897 161.655 151.897C158.646 151.897 156.207 149.457 156.207 146.448C156.207 143.439 158.646 141 161.655 141C164.664 141 167.103 143.439 167.103 146.448Z" fill="#F2F2F2"/>
<path d="M201.155 146.448C201.155 149.457 198.716 151.897 195.707 151.897C192.698 151.897 190.259 149.457 190.259 146.448C190.259 143.439 192.698 141 195.707 141C198.716 141 201.155 143.439 201.155 146.448Z" fill="#F2F2F2"/>
<path d="M133.052 146.448C133.052 149.457 130.612 151.897 127.603 151.897C124.594 151.897 122.155 149.457 122.155 146.448C122.155 143.439 124.594 141 127.603 141C130.612 141 133.052 143.439 133.052 146.448Z" fill="#F2F2F2"/>
<path d="M30.8966 180.5C30.8966 183.509 28.4573 185.948 25.4483 185.948C22.4393 185.948 20 183.509 20 180.5C20 177.491 22.4393 175.052 25.4483 175.052C28.4573 175.052 30.8966 177.491 30.8966 180.5Z" fill="#F2F2F2"/>
<path d="M64.9483 180.5C64.9483 183.509 62.509 185.948 59.5 185.948C56.491 185.948 54.0517 183.509 54.0517 180.5C54.0517 177.491 56.491 175.052 59.5 175.052C62.509 175.052 64.9483 177.491 64.9483 180.5Z" fill="#F2F2F2"/>
<path d="M99 180.5C99 183.509 96.5607 185.948 93.5517 185.948C90.5427 185.948 88.1034 183.509 88.1034 180.5C88.1034 177.491 90.5427 175.052 93.5517 175.052C96.5607 175.052 99 177.491 99 180.5Z" fill="#F2F2F2"/>
<path d="M167.103 180.5C167.103 183.509 164.664 185.948 161.655 185.948C158.646 185.948 156.207 183.509 156.207 180.5C156.207 177.491 158.646 175.052 161.655 175.052C164.664 175.052 167.103 177.491 167.103 180.5Z" fill="#F2F2F2"/>
<path d="M201.155 180.5C201.155 183.509 198.716 185.948 195.707 185.948C192.698 185.948 190.259 183.509 190.259 180.5C190.259 177.491 192.698 175.052 195.707 175.052C198.716 175.052 201.155 177.491 201.155 180.5Z" fill="#F2F2F2"/>
<path d="M133.052 180.5C133.052 183.509 130.612 185.948 127.603 185.948C124.594 185.948 122.155 183.509 122.155 180.5C122.155 177.491 124.594 175.052 127.603 175.052C130.612 175.052 133.052 177.491 133.052 180.5Z" fill="#F2F2F2"/>
<path d="M30.8966 214.552C30.8966 217.561 28.4573 220 25.4483 220C22.4393 220 20 217.561 20 214.552C20 211.543 22.4393 209.103 25.4483 209.103C28.4573 209.103 30.8966 211.543 30.8966 214.552Z" fill="#F2F2F2"/>
<path d="M64.9483 214.552C64.9483 217.561 62.509 220 59.5 220C56.491 220 54.0517 217.561 54.0517 214.552C54.0517 211.543 56.491 209.103 59.5 209.103C62.509 209.103 64.9483 211.543 64.9483 214.552Z" fill="#F2F2F2"/>
<path d="M99 214.552C99 217.561 96.5607 220 93.5517 220C90.5427 220 88.1034 217.561 88.1034 214.552C88.1034 211.543 90.5427 209.103 93.5517 209.103C96.5607 209.103 99 211.543 99 214.552Z" fill="#F2F2F2"/>
<path d="M167.103 214.552C167.103 217.561 164.664 220 161.655 220C158.646 220 156.207 217.561 156.207 214.552C156.207 211.543 158.646 209.103 161.655 209.103C164.664 209.103 167.103 211.543 167.103 214.552Z" fill="#F2F2F2"/>
<path d="M201.155 214.552C201.155 217.561 198.716 220 195.707 220C192.698 220 190.259 217.561 190.259 214.552C190.259 211.543 192.698 209.103 195.707 209.103C198.716 209.103 201.155 211.543 201.155 214.552Z" fill="#F2F2F2"/>
<path d="M133.052 214.552C133.052 217.561 130.612 220 127.603 220C124.594 220 122.155 217.561 122.155 214.552C122.155 211.543 124.594 209.103 127.603 209.103C130.612 209.103 133.052 211.543 133.052 214.552Z" fill="#F2F2F2"/>
<path d="M20 21C20 18.2386 22.2386 16 25 16H392C394.761 16 397 18.2386 397 21V106C397 108.761 394.761 111 392 111H25C22.2386 111 20 108.761 20 106V21Z" fill="white"/>
<path d="M30.3966 146.448C30.3966 149.181 28.1811 151.397 25.4483 151.397C22.7154 151.397 20.5 149.181 20.5 146.448C20.5 143.715 22.7154 141.5 25.4483 141.5C28.1811 141.5 30.3966 143.715 30.3966 146.448ZM64.4483 146.448C64.4483 149.181 62.2329 151.397 59.5 151.397C56.7671 151.397 54.5517 149.181 54.5517 146.448C54.5517 143.715 56.7671 141.5 59.5 141.5C62.2329 141.5 64.4483 143.715 64.4483 146.448ZM98.5 146.448C98.5 149.181 96.2846 151.397 93.5517 151.397C90.8189 151.397 88.6034 149.181 88.6034 146.448C88.6034 143.715 90.8189 141.5 93.5517 141.5C96.2846 141.5 98.5 143.715 98.5 146.448ZM166.603 146.448C166.603 149.181 164.388 151.397 161.655 151.397C158.922 151.397 156.707 149.181 156.707 146.448C156.707 143.715 158.922 141.5 161.655 141.5C164.388 141.5 166.603 143.715 166.603 146.448ZM200.655 146.448C200.655 149.181 198.44 151.397 195.707 151.397C192.974 151.397 190.759 149.181 190.759 146.448C190.759 143.715 192.974 141.5 195.707 141.5C198.44 141.5 200.655 143.715 200.655 146.448ZM132.552 146.448C132.552 149.181 130.336 151.397 127.603 151.397C124.871 151.397 122.655 149.181 122.655 146.448C122.655 143.715 124.871 141.5 127.603 141.5C130.336 141.5 132.552 143.715 132.552 146.448ZM30.3966 180.5C30.3966 183.233 28.1811 185.448 25.4483 185.448C22.7154 185.448 20.5 183.233 20.5 180.5C20.5 177.767 22.7154 175.552 25.4483 175.552C28.1811 175.552 30.3966 177.767 30.3966 180.5ZM64.4483 180.5C64.4483 183.233 62.2329 185.448 59.5 185.448C56.7671 185.448 54.5517 183.233 54.5517 180.5C54.5517 177.767 56.7671 175.552 59.5 175.552C62.2329 175.552 64.4483 177.767 64.4483 180.5ZM98.5 180.5C98.5 183.233 96.2846 185.448 93.5517 185.448C90.8189 185.448 88.6034 183.233 88.6034 180.5C88.6034 177.767 90.8189 175.552 93.5517 175.552C96.2846 175.552 98.5 177.767 98.5 180.5ZM166.603 180.5C166.603 183.233 164.388 185.448 161.655 185.448C158.922 185.448 156.707 183.233 156.707 180.5C156.707 177.767 158.922 175.552 161.655 175.552C164.388 175.552 166.603 177.767 166.603 180.5ZM200.655 180.5C200.655 183.233 198.44 185.448 195.707 185.448C192.974 185.448 190.759 183.233 190.759 180.5C190.759 177.767 192.974 175.552 195.707 175.552C198.44 175.552 200.655 177.767 200.655 180.5ZM132.552 180.5C132.552 183.233 130.336 185.448 127.603 185.448C124.871 185.448 122.655 183.233 122.655 180.5C122.655 177.767 124.871 175.552 127.603 175.552C130.336 175.552 132.552 177.767 132.552 180.5ZM30.3966 214.552C30.3966 217.285 28.1811 219.5 25.4483 219.5C22.7154 219.5 20.5 217.285 20.5 214.552C20.5 211.819 22.7154 209.603 25.4483 209.603C28.1811 209.603 30.3966 211.819 30.3966 214.552ZM64.4483 214.552C64.4483 217.285 62.2329 219.5 59.5 219.5C56.7671 219.5 54.5517 217.285 54.5517 214.552C54.5517 211.819 56.7671 209.603 59.5 209.603C62.2329 209.603 64.4483 211.819 64.4483 214.552ZM98.5 214.552C98.5 217.285 96.2846 219.5 93.5517 219.5C90.8189 219.5 88.6034 217.285 88.6034 214.552C88.6034 211.819 90.8189 209.603 93.5517 209.603C96.2846 209.603 98.5 211.819 98.5 214.552ZM166.603 214.552C166.603 217.285 164.388 219.5 161.655 219.5C158.922 219.5 156.707 217.285 156.707 214.552C156.707 211.819 158.922 209.603 161.655 209.603C164.388 209.603 166.603 211.819 166.603 214.552ZM200.655 214.552C200.655 217.285 198.44 219.5 195.707 219.5C192.974 219.5 190.759 217.285 190.759 214.552C190.759 211.819 192.974 209.603 195.707 209.603C198.44 209.603 200.655 211.819 200.655 214.552ZM132.552 214.552C132.552 217.285 130.336 219.5 127.603 219.5C124.871 219.5 122.655 217.285 122.655 214.552C122.655 211.819 124.871 209.603 127.603 209.603C130.336 209.603 132.552 211.819 132.552 214.552ZM20.5 21C20.5 18.5147 22.5147 16.5 25 16.5H392C394.485 16.5 396.5 18.5147 396.5 21V106C396.5 108.485 394.485 110.5 392 110.5H25C22.5147 110.5 20.5 108.485 20.5 106V21Z" stroke="#E0E0E0"/>
</g>
<defs>
<filter id="filter0_d_1_1680" x="0" y="0" width="417" height="244" filterUnits="userSpaceOnUse" color-interpolation-filters="sRGB">
<feFlood flood-opacity="0" result="BackgroundImageFix"/>
<feColorMatrix in="SourceAlpha" type="matrix" values="0 0 0 0 0 0 0 0 0 0 0 0 0 0 0 0 0 0 127 0" result="hardAlpha"/>
<feMorphology radius="20" operator="erode" in="SourceAlpha" result="effect1_dropShadow_1_1680"/>
<feOffset dy="4"/>
<feGaussianBlur stdDeviation="20"/>
<feComposite in2="hardAlpha" operator="out"/>
<feColorMatrix type="matrix" values="0 0 0 0 0 0 0 0 0 0 0 0 0 0 0 0 0 0 0.25 0"/>
<feBlend mode="normal" in2="BackgroundImageFix" result="effect1_dropShadow_1_1680"/>
<feBlend mode="normal" in="SourceGraphic" in2="effect1_dropShadow_1_1680" result="shape"/>
</filter>
</defs>
</svg>
